<svg xmlns="http://www.w3.org/2000/svg" viewBox="0 0 24 24" width="24" height="24" fill="none" stroke-linecap="round" stroke-linejoin="round">
  <path d="M17.5 19A3.5 3.5 0 0 0 21 15.5c0-2.79-2.54-4.5-5-4.5-.57-3.41-3.5-6-7-6a7 7 0 0 0-6.93 6.07C1.04 11.58 0 12.92 0 14.5A3.5 3.5 0 0 0 3.5 18H5" stroke="#000000" stroke-width="2" />
  <path d="M21.5 21.5A2.5 2.5 0 0 1 19 19h2.5" stroke="#000000" stroke-width="2" />
  <path d="M16.5 16.5A2.5 2.5 0 0 1 19 19h-2.5" stroke="#000000" stroke-width="2" />
</svg>